<svg width="136" height="20" viewBox="0 0 136 20" fill="none" xmlns="http://www.w3.org/2000/svg">
    <g clip-path="url(#clip0_1_86)">
        <path
            d="M119.807 19.9688L121.222 5.93668e-07L129.979 0C138.456 0 137.326 12.1549 130.667 12.1126L135.958 19.9688H130.67L125.646 12.1915L127.493 7.78009C134.008 8.24838 131.804 3.98558 128.436 4.32981L124.95 4.37239L123.847 19.9688H119.807Z"
            fill="black" />
        <path
            d="M85.7981 0.0368204L84.7689 19.9688H88.801L89.6167 4.22334L92.9473 4.39991C100.065 4.54115 99.5682 16.275 91.2577 15.5248C90.6035 17.4083 90.4342 18.0926 89.6412 19.9688C97.2738 20.3735 102.315 16.8407 102.288 9.31377C102.266 3.29223 98.3319 -5.63022e-06 93.4536 0L85.7981 0.0368204Z"
            fill="black" />
        <path
            d="M71.7358 0L63.2941 19.9688H67.4764L73.6387 5.68846L75.6697 11.4925L74.0492 11.5609L70.3626 15.6267L77.2347 15.6647L78.5307 19.9688H82.8474L77.2533 3.22865L80.0938 0H71.7358Z"
            fill="black" />
        <path fill-rule="evenodd" clip-rule="evenodd"
            d="M50.5472 18.5985C54.8536 21.3849 60.6391 19.787 63.4695 15.0295C66.2999 10.2721 65.1034 4.15663 60.7971 1.37029C56.4907 -1.41605 50.7052 0.181842 47.8748 4.9393C45.0444 9.69674 46.2409 15.8122 50.5472 18.5985ZM52.8069 14.8005C55.2145 16.3583 58.4491 15.465 60.0315 12.8052C61.6139 10.1454 60.945 6.72635 58.5374 5.16856C56.1298 3.61077 52.8952 4.50413 51.3128 7.16392C49.7304 9.82372 50.3993 13.2428 52.8069 14.8005Z"
            fill="black" />
        <path
            d="M20.6601 0H16.0651L20.8008 9.93959L14.6933 19.9688H19.2883L22.7242 14.3871L25.5468 19.9688H30.1418L25.406 9.93959L31.5136 0H26.9186L23.1702 5.80772L20.6601 0Z"
            fill="black" />
        <path
            d="M1.36162 0L0 19.9726H13.2305L13.515 15.7955H4.32502L5.1176 4.18667H11.9408L15.5727 0H1.36162Z"
            fill="black" />
        <path d="M7.78493 7.9375L6.11414 12.0351H11.2636L11.5481 7.9375H7.78493Z" fill="black" />
        <path
            d="M104.78 0L103.418 19.9726H116.649L116.933 15.7955H107.743L108.536 4.18667H115.359L118.991 0H104.78Z"
            fill="black" />
        <path d="M111.203 7.9375L109.532 12.0351H114.682L114.966 7.9375H111.203Z" fill="black" />
        <path
            d="M31.647 19.9688L33.7026 0L37.8944 0.00118731L36.25 15.9762H46.538L42.9496 19.9688H31.647Z"
            fill="black" />
    </g>
    <defs>
        <clipPath id="clip0_1_86">
            <rect width="136" height="20" fill="white" />
        </clipPath>
    </defs>
</svg>
