<svg width="24" height="24" viewBox="0 0 24 24" fill="none" xmlns="http://www.w3.org/2000/svg">
    <g clip-path="url(#clip0_1_73)">
        <path
            d="M12.58 14.0466L10.8867 12.3733L10.9067 12.3533C12.0667 11.06 12.8933 9.57331 13.38 7.99998H15.3333V6.66665H10.6667V5.33331H9.33332V6.66665H4.66666V7.99331H12.1133C11.6667 9.27998 10.96 10.5 9.99999 11.5666C9.37999 10.88 8.86666 10.1266 8.45999 9.33331H7.12666C7.61332 10.42 8.27999 11.4466 9.11332 12.3733L5.71999 15.72L6.66666 16.6666L9.99999 13.3333L12.0733 15.4066L12.58 14.0466ZM16.3333 10.6666H15L12 18.6666H13.3333L14.08 16.6666H17.2467L18 18.6666H19.3333L16.3333 10.6666ZM14.5867 15.3333L15.6667 12.4466L16.7467 15.3333H14.5867Z"
            fill="black" />
    </g>
    <defs>
        <clipPath id="clip0_1_73">
            <rect width="16" height="16" fill="white" transform="translate(4 4)" />
        </clipPath>
    </defs>
</svg>
